<svg xmlns="http://www.w3.org/2000/svg" width="11" height="11" viewBox="0 0 11 11">
    <g fill="#31353F" opacity=".5">
        <path d="M9.531.444C8.663-.222 7.433-.13 6.675.66L1.464 5.871c-.038.038-.058.088-.058.14 0 .053.02.104.058.14l2.654 2.656c.037.038.087.059.14.059.052 0 .103-.021.14-.059l5.29-5.29c.413-.415.632-.986.602-1.571-.03-.585-.305-1.131-.759-1.502zM.84 7.207c-.052-.051-.128-.07-.198-.05-.07.022-.122.08-.136.152L.008 9.797c-.024.116.006.237.081.33.076.091.188.145.307.145.027 0 .053-.003.08-.008l2.489-.498c.071-.015.13-.067.15-.137.022-.07.003-.146-.05-.198L.84 7.207z"/>
    </g>
</svg>
