<svg xmlns="http://www.w3.org/2000/svg" width="18" height="20" viewBox="0 0 18 20">
    <g fill="#61687C">
        <path d="M14.762 6H2.838c-.113 0-.22.047-.297.13-.076.083-.114.194-.103.306l1.03 11.309c.074.824.765 1.455 1.593 1.455h7.477c.828 0 1.52-.631 1.594-1.455L15.16 6.436c.01-.112-.027-.223-.103-.306-.076-.083-.183-.13-.295-.13zm-7.36 10.4c0 .331-.269.6-.6.6-.332 0-.6-.269-.6-.6V9.2c0-.331.268-.6.6-.6.331 0 .6.269.6.6v7.2zm4 0c0 .331-.269.6-.6.6-.332 0-.6-.269-.6-.6V9.2c0-.331.268-.6.6-.6.331 0 .6.269.6.6v7.2zM16.8 3.2H13c-.11 0-.2-.09-.2-.2V2c0-1.105-.895-2-2-2h-4c-1.105 0-2 .895-2 2v1c0 .053-.021.104-.059.141-.037.038-.088.059-.141.059H.8c-.442 0-.8.358-.8.8 0 .442.358.8.8.8h16c.442 0 .8-.358.8-.8 0-.442-.358-.8-.8-.8zM6.4 3V2c0-.22.18-.4.4-.4h4c.22 0 .4.18.4.4v1c0 .11-.09.2-.2.2H6.6c-.11 0-.2-.09-.2-.2z"/>
    </g>
</svg>
